<?xml version="1.0" encoding="UTF-8"?>
<svg version="1.1" xmlns="http://www.w3.org/2000/svg" width="16" height="16">
<path d="M0 0 C5.28 0 10.56 0 16 0 C16 5.28 16 10.56 16 16 C10.72 16 5.44 16 0 16 C0 10.72 0 5.44 0 0 Z " fill="#F7F7F7" transform="translate(0,0)"/>
<path d="M0 0 C3.0625 0.375 3.0625 0.375 5 1.9375 C6.48384164 5.34160729 5.81671541 7.80961808 5.0625 11.375 C1.7625 11.375 -1.5375 11.375 -4.9375 11.375 C-5.1328125 4.5390625 -5.1328125 4.5390625 -4.9375 2.375 C-2.9375 0.375 -2.9375 0.375 0 0 Z " fill="#8798A4" transform="translate(7.9375,2.625)"/>
<path d="M0 0 C2.97 0 5.94 0 9 0 C9.33 0.99 9.66 1.98 10 3 C8.02 3.66 6.04 4.32 4 5 C3.67 6.98 3.34 8.96 3 11 C1.5 10 1.5 10 0 8 C-0.27345479 5.28153765 -0.13491285 2.74322801 0 0 Z " fill="#EFEFEF" transform="translate(0,0)"/>
<path d="M0 0 C3.0625 0.375 3.0625 0.375 4.9375 2.125 C6.0625 4.375 6.0625 4.375 6.0625 8.375 C4.4125 8.375 2.7625 8.375 1.0625 8.375 C1.0625 7.385 1.0625 6.395 1.0625 5.375 C1.7225 5.375 2.3825 5.375 3.0625 5.375 C3.0625 4.715 3.0625 4.055 3.0625 3.375 C1.0825 3.375 -0.8975 3.375 -2.9375 3.375 C-3.2675 4.365 -3.5975 5.355 -3.9375 6.375 C-3.2775 6.375 -2.6175 6.375 -1.9375 6.375 C-1.9375 7.035 -1.9375 7.695 -1.9375 8.375 C-2.9275 8.375 -3.9175 8.375 -4.9375 8.375 C-5.0625 5.5 -5.0625 5.5 -4.9375 2.375 C-2.9375 0.375 -2.9375 0.375 0 0 Z " fill="#889298" transform="translate(7.9375,2.625)"/>
<path d="M0 0 C2.2477975 2.05233685 3.0022242 3.00667261 4 6 C6.64 6.33 9.28 6.66 12 7 C12 7.33 12 7.66 12 8 C8.04 8 4.08 8 0 8 C0 5.36 0 2.72 0 0 Z " fill="#FCFCFC" transform="translate(0,8)"/>
<path d="M0 0 C0 1.98 0 3.96 0 6 C-3.96 5.67 -7.92 5.34 -12 5 C-12 4.67 -12 4.34 -12 4 C-9.03 4 -6.06 4 -3 4 C-3 3.01 -3 2.02 -3 1 C-1 0 -1 0 0 0 Z " fill="#E9ECEF" transform="translate(16,10)"/>
<path d="M0 0 C1.65 0 3.3 0 5 0 C5.33 1.32 5.66 2.64 6 4 C3.03 3.505 3.03 3.505 0 3 C0 2.01 0 1.02 0 0 Z " fill="#CAC9C3" transform="translate(6,5)"/>
</svg>
